<svg version="1.1" xmlns="http://www.w3.org/2000/svg" xmlns:xlink="http://www.w3.org/1999/xlink" width="1091" height="636"><defs/><g><text fill="#eeeeee" stroke="none" font-family="Arial" font-size="24px" font-style="normal" font-weight="normal" text-decoration="none" x="0" y="0">UNREGISTERED</text><text fill="#eeeeee" stroke="none" font-family="Arial" font-size="24px" font-style="normal" font-weight="normal" text-decoration="none" x="0" y="30">UNREGISTERED</text><text fill="#eeeeee" stroke="none" font-family="Arial" font-size="24px" font-style="normal" font-weight="normal" text-decoration="none" x="0" y="60">UNREGISTERED</text><text fill="#eeeeee" stroke="none" font-family="Arial" font-size="24px" font-style="normal" font-weight="normal" text-decoration="none" x="0" y="90">UNREGISTERED</text><text fill="#eeeeee" stroke="none" font-family="Arial" font-size="24px" font-style="normal" font-weight="normal" text-decoration="none" x="0" y="120">UNREGISTERED</text><text fill="#eeeeee" stroke="none" font-family="Arial" font-size="24px" font-style="normal" font-weight="normal" text-decoration="none" x="0" y="150">UNREGISTERED</text><text fill="#eeeeee" stroke="none" font-family="Arial" font-size="24px" font-style="normal" font-weight="normal" text-decoration="none" x="0" y="180">UNREGISTERED</text><text fill="#eeeeee" stroke="none" font-family="Arial" font-size="24px" font-style="normal" font-weight="normal" text-decoration="none" x="0" y="210">UNREGISTERED</text><text fill="#eeeeee" stroke="none" font-family="Arial" font-size="24px" font-style="normal" font-weight="normal" text-decoration="none" x="0" y="240">UNREGISTERED</text><text fill="#eeeeee" stroke="none" font-family="Arial" font-size="24px" font-style="normal" font-weight="normal" text-decoration="none" x="0" y="270">UNREGISTERED</text><text fill="#eeeeee" stroke="none" font-family="Arial" font-size="24px" font-style="normal" font-weight="normal" text-decoration="none" x="0" y="300">UNREGISTERED</text><text fill="#eeeeee" stroke="none" font-family="Arial" font-size="24px" font-style="normal" font-weight="normal" text-decoration="none" x="0" y="330">UNREGISTERED</text><text fill="#eeeeee" stroke="none" font-family="Arial" font-size="24px" font-style="normal" font-weight="normal" text-decoration="none" x="0" y="360">UNREGISTERED</text><text fill="#eeeeee" stroke="none" font-family="Arial" font-size="24px" font-style="normal" font-weight="normal" text-decoration="none" x="0" y="390">UNREGISTERED</text><text fill="#eeeeee" stroke="none" font-family="Arial" font-size="24px" font-style="normal" font-weight="normal" text-decoration="none" x="0" y="420">UNREGISTERED</text><text fill="#eeeeee" stroke="none" font-family="Arial" font-size="24px" font-style="normal" font-weight="normal" text-decoration="none" x="0" y="450">UNREGISTERED</text><text fill="#eeeeee" stroke="none" font-family="Arial" font-size="24px" font-style="normal" font-weight="normal" text-decoration="none" x="0" y="480">UNREGISTERED</text><text fill="#eeeeee" stroke="none" font-family="Arial" font-size="24px" font-style="normal" font-weight="normal" text-decoration="none" x="0" y="510">UNREGISTERED</text><text fill="#eeeeee" stroke="none" font-family="Arial" font-size="24px" font-style="normal" font-weight="normal" text-decoration="none" x="0" y="540">UNREGISTERED</text><text fill="#eeeeee" stroke="none" font-family="Arial" font-size="24px" font-style="normal" font-weight="normal" text-decoration="none" x="0" y="570">UNREGISTERED</text><text fill="#eeeeee" stroke="none" font-family="Arial" font-size="24px" font-style="normal" font-weight="normal" text-decoration="none" x="0" y="600">UNREGISTERED</text><text fill="#eeeeee" stroke="none" font-family="Arial" font-size="24px" font-style="normal" font-weight="normal" text-decoration="none" x="0" y="630">UNREGISTERED</text><text fill="#eeeeee" stroke="none" font-family="Arial" font-size="24px" font-style="normal" font-weight="normal" text-decoration="none" x="200" y="0">UNREGISTERED</text><text fill="#eeeeee" stroke="none" font-family="Arial" font-size="24px" font-style="normal" font-weight="normal" text-decoration="none" x="200" y="30">UNREGISTERED</text><text fill="#eeeeee" stroke="none" font-family="Arial" font-size="24px" font-style="normal" font-weight="normal" text-decoration="none" x="200" y="60">UNREGISTERED</text><text fill="#eeeeee" stroke="none" font-family="Arial" font-size="24px" font-style="normal" font-weight="normal" text-decoration="none" x="200" y="90">UNREGISTERED</text><text fill="#eeeeee" stroke="none" font-family="Arial" font-size="24px" font-style="normal" font-weight="normal" text-decoration="none" x="200" y="120">UNREGISTERED</text><text fill="#eeeeee" stroke="none" font-family="Arial" font-size="24px" font-style="normal" font-weight="normal" text-decoration="none" x="200" y="150">UNREGISTERED</text><text fill="#eeeeee" stroke="none" font-family="Arial" font-size="24px" font-style="normal" font-weight="normal" text-decoration="none" x="200" y="180">UNREGISTERED</text><text fill="#eeeeee" stroke="none" font-family="Arial" font-size="24px" font-style="normal" font-weight="normal" text-decoration="none" x="200" y="210">UNREGISTERED</text><text fill="#eeeeee" stroke="none" font-family="Arial" font-size="24px" font-style="normal" font-weight="normal" text-decoration="none" x="200" y="240">UNREGISTERED</text><text fill="#eeeeee" stroke="none" font-family="Arial" font-size="24px" font-style="normal" font-weight="normal" text-decoration="none" x="200" y="270">UNREGISTERED</text><text fill="#eeeeee" stroke="none" font-family="Arial" font-size="24px" font-style="normal" font-weight="normal" text-decoration="none" x="200" y="300">UNREGISTERED</text><text fill="#eeeeee" stroke="none" font-family="Arial" font-size="24px" font-style="normal" font-weight="normal" text-decoration="none" x="200" y="330">UNREGISTERED</text><text fill="#eeeeee" stroke="none" font-family="Arial" font-size="24px" font-style="normal" font-weight="normal" text-decoration="none" x="200" y="360">UNREGISTERED</text><text fill="#eeeeee" stroke="none" font-family="Arial" font-size="24px" font-style="normal" font-weight="normal" text-decoration="none" x="200" y="390">UNREGISTERED</text><text fill="#eeeeee" stroke="none" font-family="Arial" font-size="24px" font-style="normal" font-weight="normal" text-decoration="none" x="200" y="420">UNREGISTERED</text><text fill="#eeeeee" stroke="none" font-family="Arial" font-size="24px" font-style="normal" font-weight="normal" text-decoration="none" x="200" y="450">UNREGISTERED</text><text fill="#eeeeee" stroke="none" font-family="Arial" font-size="24px" font-style="normal" font-weight="normal" text-decoration="none" x="200" y="480">UNREGISTERED</text><text fill="#eeeeee" stroke="none" font-family="Arial" font-size="24px" font-style="normal" font-weight="normal" text-decoration="none" x="200" y="510">UNREGISTERED</text><text fill="#eeeeee" stroke="none" font-family="Arial" font-size="24px" font-style="normal" font-weight="normal" text-decoration="none" x="200" y="540">UNREGISTERED</text><text fill="#eeeeee" stroke="none" font-family="Arial" font-size="24px" font-style="normal" font-weight="normal" text-decoration="none" x="200" y="570">UNREGISTERED</text><text fill="#eeeeee" stroke="none" font-family="Arial" font-size="24px" font-style="normal" font-weight="normal" text-decoration="none" x="200" y="600">UNREGISTERED</text><text fill="#eeeeee" stroke="none" font-family="Arial" font-size="24px" font-style="normal" font-weight="normal" text-decoration="none" x="200" y="630">UNREGISTERED</text><text fill="#eeeeee" stroke="none" font-family="Arial" font-size="24px" font-style="normal" font-weight="normal" text-decoration="none" x="400" y="0">UNREGISTERED</text><text fill="#eeeeee" stroke="none" font-family="Arial" font-size="24px" font-style="normal" font-weight="normal" text-decoration="none" x="400" y="30">UNREGISTERED</text><text fill="#eeeeee" stroke="none" font-family="Arial" font-size="24px" font-style="normal" font-weight="normal" text-decoration="none" x="400" y="60">UNREGISTERED</text><text fill="#eeeeee" stroke="none" font-family="Arial" font-size="24px" font-style="normal" font-weight="normal" text-decoration="none" x="400" y="90">UNREGISTERED</text><text fill="#eeeeee" stroke="none" font-family="Arial" font-size="24px" font-style="normal" font-weight="normal" text-decoration="none" x="400" y="120">UNREGISTERED</text><text fill="#eeeeee" stroke="none" font-family="Arial" font-size="24px" font-style="normal" font-weight="normal" text-decoration="none" x="400" y="150">UNREGISTERED</text><text fill="#eeeeee" stroke="none" font-family="Arial" font-size="24px" font-style="normal" font-weight="normal" text-decoration="none" x="400" y="180">UNREGISTERED</text><text fill="#eeeeee" stroke="none" font-family="Arial" font-size="24px" font-style="normal" font-weight="normal" text-decoration="none" x="400" y="210">UNREGISTERED</text><text fill="#eeeeee" stroke="none" font-family="Arial" font-size="24px" font-style="normal" font-weight="normal" text-decoration="none" x="400" y="240">UNREGISTERED</text><text fill="#eeeeee" stroke="none" font-family="Arial" font-size="24px" font-style="normal" font-weight="normal" text-decoration="none" x="400" y="270">UNREGISTERED</text><text fill="#eeeeee" stroke="none" font-family="Arial" font-size="24px" font-style="normal" font-weight="normal" text-decoration="none" x="400" y="300">UNREGISTERED</text><text fill="#eeeeee" stroke="none" font-family="Arial" font-size="24px" font-style="normal" font-weight="normal" text-decoration="none" x="400" y="330">UNREGISTERED</text><text fill="#eeeeee" stroke="none" font-family="Arial" font-size="24px" font-style="normal" font-weight="normal" text-decoration="none" x="400" y="360">UNREGISTERED</text><text fill="#eeeeee" stroke="none" font-family="Arial" font-size="24px" font-style="normal" font-weight="normal" text-decoration="none" x="400" y="390">UNREGISTERED</text><text fill="#eeeeee" stroke="none" font-family="Arial" font-size="24px" font-style="normal" font-weight="normal" text-decoration="none" x="400" y="420">UNREGISTERED</text><text fill="#eeeeee" stroke="none" font-family="Arial" font-size="24px" font-style="normal" font-weight="normal" text-decoration="none" x="400" y="450">UNREGISTERED</text><text fill="#eeeeee" stroke="none" font-family="Arial" font-size="24px" font-style="normal" font-weight="normal" text-decoration="none" x="400" y="480">UNREGISTERED</text><text fill="#eeeeee" stroke="none" font-family="Arial" font-size="24px" font-style="normal" font-weight="normal" text-decoration="none" x="400" y="510">UNREGISTERED</text><text fill="#eeeeee" stroke="none" font-family="Arial" font-size="24px" font-style="normal" font-weight="normal" text-decoration="none" x="400" y="540">UNREGISTERED</text><text fill="#eeeeee" stroke="none" font-family="Arial" font-size="24px" font-style="normal" font-weight="normal" text-decoration="none" x="400" y="570">UNREGISTERED</text><text fill="#eeeeee" stroke="none" font-family="Arial" font-size="24px" font-style="normal" font-weight="normal" text-decoration="none" x="400" y="600">UNREGISTERED</text><text fill="#eeeeee" stroke="none" font-family="Arial" font-size="24px" font-style="normal" font-weight="normal" text-decoration="none" x="400" y="630">UNREGISTERED</text><text fill="#eeeeee" stroke="none" font-family="Arial" font-size="24px" font-style="normal" font-weight="normal" text-decoration="none" x="600" y="0">UNREGISTERED</text><text fill="#eeeeee" stroke="none" font-family="Arial" font-size="24px" font-style="normal" font-weight="normal" text-decoration="none" x="600" y="30">UNREGISTERED</text><text fill="#eeeeee" stroke="none" font-family="Arial" font-size="24px" font-style="normal" font-weight="normal" text-decoration="none" x="600" y="60">UNREGISTERED</text><text fill="#eeeeee" stroke="none" font-family="Arial" font-size="24px" font-style="normal" font-weight="normal" text-decoration="none" x="600" y="90">UNREGISTERED</text><text fill="#eeeeee" stroke="none" font-family="Arial" font-size="24px" font-style="normal" font-weight="normal" text-decoration="none" x="600" y="120">UNREGISTERED</text><text fill="#eeeeee" stroke="none" font-family="Arial" font-size="24px" font-style="normal" font-weight="normal" text-decoration="none" x="600" y="150">UNREGISTERED</text><text fill="#eeeeee" stroke="none" font-family="Arial" font-size="24px" font-style="normal" font-weight="normal" text-decoration="none" x="600" y="180">UNREGISTERED</text><text fill="#eeeeee" stroke="none" font-family="Arial" font-size="24px" font-style="normal" font-weight="normal" text-decoration="none" x="600" y="210">UNREGISTERED</text><text fill="#eeeeee" stroke="none" font-family="Arial" font-size="24px" font-style="normal" font-weight="normal" text-decoration="none" x="600" y="240">UNREGISTERED</text><text fill="#eeeeee" stroke="none" font-family="Arial" font-size="24px" font-style="normal" font-weight="normal" text-decoration="none" x="600" y="270">UNREGISTERED</text><text fill="#eeeeee" stroke="none" font-family="Arial" font-size="24px" font-style="normal" font-weight="normal" text-decoration="none" x="600" y="300">UNREGISTERED</text><text fill="#eeeeee" stroke="none" font-family="Arial" font-size="24px" font-style="normal" font-weight="normal" text-decoration="none" x="600" y="330">UNREGISTERED</text><text fill="#eeeeee" stroke="none" font-family="Arial" font-size="24px" font-style="normal" font-weight="normal" text-decoration="none" x="600" y="360">UNREGISTERED</text><text fill="#eeeeee" stroke="none" font-family="Arial" font-size="24px" font-style="normal" font-weight="normal" text-decoration="none" x="600" y="390">UNREGISTERED</text><text fill="#eeeeee" stroke="none" font-family="Arial" font-size="24px" font-style="normal" font-weight="normal" text-decoration="none" x="600" y="420">UNREGISTERED</text><text fill="#eeeeee" stroke="none" font-family="Arial" font-size="24px" font-style="normal" font-weight="normal" text-decoration="none" x="600" y="450">UNREGISTERED</text><text fill="#eeeeee" stroke="none" font-family="Arial" font-size="24px" font-style="normal" font-weight="normal" text-decoration="none" x="600" y="480">UNREGISTERED</text><text fill="#eeeeee" stroke="none" font-family="Arial" font-size="24px" font-style="normal" font-weight="normal" text-decoration="none" x="600" y="510">UNREGISTERED</text><text fill="#eeeeee" stroke="none" font-family="Arial" font-size="24px" font-style="normal" font-weight="normal" text-decoration="none" x="600" y="540">UNREGISTERED</text><text fill="#eeeeee" stroke="none" font-family="Arial" font-size="24px" font-style="normal" font-weight="normal" text-decoration="none" x="600" y="570">UNREGISTERED</text><text fill="#eeeeee" stroke="none" font-family="Arial" font-size="24px" font-style="normal" font-weight="normal" text-decoration="none" x="600" y="600">UNREGISTERED</text><text fill="#eeeeee" stroke="none" font-family="Arial" font-size="24px" font-style="normal" font-weight="normal" text-decoration="none" x="600" y="630">UNREGISTERED</text><text fill="#eeeeee" stroke="none" font-family="Arial" font-size="24px" font-style="normal" font-weight="normal" text-decoration="none" x="800" y="0">UNREGISTERED</text><text fill="#eeeeee" stroke="none" font-family="Arial" font-size="24px" font-style="normal" font-weight="normal" text-decoration="none" x="800" y="30">UNREGISTERED</text><text fill="#eeeeee" stroke="none" font-family="Arial" font-size="24px" font-style="normal" font-weight="normal" text-decoration="none" x="800" y="60">UNREGISTERED</text><text fill="#eeeeee" stroke="none" font-family="Arial" font-size="24px" font-style="normal" font-weight="normal" text-decoration="none" x="800" y="90">UNREGISTERED</text><text fill="#eeeeee" stroke="none" font-family="Arial" font-size="24px" font-style="normal" font-weight="normal" text-decoration="none" x="800" y="120">UNREGISTERED</text><text fill="#eeeeee" stroke="none" font-family="Arial" font-size="24px" font-style="normal" font-weight="normal" text-decoration="none" x="800" y="150">UNREGISTERED</text><text fill="#eeeeee" stroke="none" font-family="Arial" font-size="24px" font-style="normal" font-weight="normal" text-decoration="none" x="800" y="180">UNREGISTERED</text><text fill="#eeeeee" stroke="none" font-family="Arial" font-size="24px" font-style="normal" font-weight="normal" text-decoration="none" x="800" y="210">UNREGISTERED</text><text fill="#eeeeee" stroke="none" font-family="Arial" font-size="24px" font-style="normal" font-weight="normal" text-decoration="none" x="800" y="240">UNREGISTERED</text><text fill="#eeeeee" stroke="none" font-family="Arial" font-size="24px" font-style="normal" font-weight="normal" text-decoration="none" x="800" y="270">UNREGISTERED</text><text fill="#eeeeee" stroke="none" font-family="Arial" font-size="24px" font-style="normal" font-weight="normal" text-decoration="none" x="800" y="300">UNREGISTERED</text><text fill="#eeeeee" stroke="none" font-family="Arial" font-size="24px" font-style="normal" font-weight="normal" text-decoration="none" x="800" y="330">UNREGISTERED</text><text fill="#eeeeee" stroke="none" font-family="Arial" font-size="24px" font-style="normal" font-weight="normal" text-decoration="none" x="800" y="360">UNREGISTERED</text><text fill="#eeeeee" stroke="none" font-family="Arial" font-size="24px" font-style="normal" font-weight="normal" text-decoration="none" x="800" y="390">UNREGISTERED</text><text fill="#eeeeee" stroke="none" font-family="Arial" font-size="24px" font-style="normal" font-weight="normal" text-decoration="none" x="800" y="420">UNREGISTERED</text><text fill="#eeeeee" stroke="none" font-family="Arial" font-size="24px" font-style="normal" font-weight="normal" text-decoration="none" x="800" y="450">UNREGISTERED</text><text fill="#eeeeee" stroke="none" font-family="Arial" font-size="24px" font-style="normal" font-weight="normal" text-decoration="none" x="800" y="480">UNREGISTERED</text><text fill="#eeeeee" stroke="none" font-family="Arial" font-size="24px" font-style="normal" font-weight="normal" text-decoration="none" x="800" y="510">UNREGISTERED</text><text fill="#eeeeee" stroke="none" font-family="Arial" font-size="24px" font-style="normal" font-weight="normal" text-decoration="none" x="800" y="540">UNREGISTERED</text><text fill="#eeeeee" stroke="none" font-family="Arial" font-size="24px" font-style="normal" font-weight="normal" text-decoration="none" x="800" y="570">UNREGISTERED</text><text fill="#eeeeee" stroke="none" font-family="Arial" font-size="24px" font-style="normal" font-weight="normal" text-decoration="none" x="800" y="600">UNREGISTERED</text><text fill="#eeeeee" stroke="none" font-family="Arial" font-size="24px" font-style="normal" font-weight="normal" text-decoration="none" x="800" y="630">UNREGISTERED</text><text fill="#eeeeee" stroke="none" font-family="Arial" font-size="24px" font-style="normal" font-weight="normal" text-decoration="none" x="1000" y="0">UNREGISTERED</text><text fill="#eeeeee" stroke="none" font-family="Arial" font-size="24px" font-style="normal" font-weight="normal" text-decoration="none" x="1000" y="30">UNREGISTERED</text><text fill="#eeeeee" stroke="none" font-family="Arial" font-size="24px" font-style="normal" font-weight="normal" text-decoration="none" x="1000" y="60">UNREGISTERED</text><text fill="#eeeeee" stroke="none" font-family="Arial" font-size="24px" font-style="normal" font-weight="normal" text-decoration="none" x="1000" y="90">UNREGISTERED</text><text fill="#eeeeee" stroke="none" font-family="Arial" font-size="24px" font-style="normal" font-weight="normal" text-decoration="none" x="1000" y="120">UNREGISTERED</text><text fill="#eeeeee" stroke="none" font-family="Arial" font-size="24px" font-style="normal" font-weight="normal" text-decoration="none" x="1000" y="150">UNREGISTERED</text><text fill="#eeeeee" stroke="none" font-family="Arial" font-size="24px" font-style="normal" font-weight="normal" text-decoration="none" x="1000" y="180">UNREGISTERED</text><text fill="#eeeeee" stroke="none" font-family="Arial" font-size="24px" font-style="normal" font-weight="normal" text-decoration="none" x="1000" y="210">UNREGISTERED</text><text fill="#eeeeee" stroke="none" font-family="Arial" font-size="24px" font-style="normal" font-weight="normal" text-decoration="none" x="1000" y="240">UNREGISTERED</text><text fill="#eeeeee" stroke="none" font-family="Arial" font-size="24px" font-style="normal" font-weight="normal" text-decoration="none" x="1000" y="270">UNREGISTERED</text><text fill="#eeeeee" stroke="none" font-family="Arial" font-size="24px" font-style="normal" font-weight="normal" text-decoration="none" x="1000" y="300">UNREGISTERED</text><text fill="#eeeeee" stroke="none" font-family="Arial" font-size="24px" font-style="normal" font-weight="normal" text-decoration="none" x="1000" y="330">UNREGISTERED</text><text fill="#eeeeee" stroke="none" font-family="Arial" font-size="24px" font-style="normal" font-weight="normal" text-decoration="none" x="1000" y="360">UNREGISTERED</text><text fill="#eeeeee" stroke="none" font-family="Arial" font-size="24px" font-style="normal" font-weight="normal" text-decoration="none" x="1000" y="390">UNREGISTERED</text><text fill="#eeeeee" stroke="none" font-family="Arial" font-size="24px" font-style="normal" font-weight="normal" text-decoration="none" x="1000" y="420">UNREGISTERED</text><text fill="#eeeeee" stroke="none" font-family="Arial" font-size="24px" font-style="normal" font-weight="normal" text-decoration="none" x="1000" y="450">UNREGISTERED</text><text fill="#eeeeee" stroke="none" font-family="Arial" font-size="24px" font-style="normal" font-weight="normal" text-decoration="none" x="1000" y="480">UNREGISTERED</text><text fill="#eeeeee" stroke="none" font-family="Arial" font-size="24px" font-style="normal" font-weight="normal" text-decoration="none" x="1000" y="510">UNREGISTERED</text><text fill="#eeeeee" stroke="none" font-family="Arial" font-size="24px" font-style="normal" font-weight="normal" text-decoration="none" x="1000" y="540">UNREGISTERED</text><text fill="#eeeeee" stroke="none" font-family="Arial" font-size="24px" font-style="normal" font-weight="normal" text-decoration="none" x="1000" y="570">UNREGISTERED</text><text fill="#eeeeee" stroke="none" font-family="Arial" font-size="24px" font-style="normal" font-weight="normal" text-decoration="none" x="1000" y="600">UNREGISTERED</text><text fill="#eeeeee" stroke="none" font-family="Arial" font-size="24px" font-style="normal" font-weight="normal" text-decoration="none" x="1000" y="630">UNREGISTERED</text><g transform="translate(-86,-78) scale(1,1)"><rect fill="#ffffff" stroke="none" x="96" y="88" width="376" height="21"/></g><g transform="translate(-86,-78) scale(1,1)"><path fill="none" stroke="#000000" d="M 96 88 L 472 88 L 472 109 L 96 109 L 96 88 Z Z" stroke-miterlimit="10" stroke-width="2"/></g><g transform="translate(-86,-78) scale(1,1)"><path fill="none" stroke="#000000" d="M 96 600 L 96 88 L 472 88 L 472 600" stroke-miterlimit="10" stroke-width="2"/></g><g transform="translate(-86,-78) scale(1,1)"><g><path fill="none" stroke="none"/><text fill="#000000" stroke="none" font-family="Arial" font-size="13px" font-style="normal" font-weight="normal" text-decoration="none" x="235.95458984375" y="102">ActivityPartition1</text></g></g><g transform="translate(-86,-78) scale(1,1)"><rect fill="#ffffff" stroke="none" x="480" y="96" width="399" height="21"/></g><g transform="translate(-86,-78) scale(1,1)"><path fill="none" stroke="#000000" d="M 480 96 L 879 96 L 879 117 L 480 117 L 480 96 Z Z" stroke-miterlimit="10" stroke-width="2"/></g><g transform="translate(-86,-78) scale(1,1)"><path fill="none" stroke="#000000" d="M 480 615 L 480 96 L 879 96 L 879 615" stroke-miterlimit="10" stroke-width="2"/></g><g transform="translate(-86,-78) scale(1,1)"><g><path fill="none" stroke="none"/><text fill="#000000" stroke="none" font-family="Arial" font-size="13px" font-style="normal" font-weight="normal" text-decoration="none" x="631.45458984375" y="110">ActivityPartition2</text></g></g><g transform="translate(-86,-78) scale(1,1)"><rect fill="#ffffff" stroke="none" x="880" y="96" width="287" height="21"/></g><g transform="translate(-86,-78) scale(1,1)"><path fill="none" stroke="#000000" d="M 880 96 L 1167 96 L 1167 117 L 880 117 L 880 96 Z Z" stroke-miterlimit="10" stroke-width="2"/></g><g transform="translate(-86,-78) scale(1,1)"><path fill="none" stroke="#000000" d="M 880 623 L 880 96 L 1167 96 L 1167 623" stroke-miterlimit="10" stroke-width="2"/></g><g transform="translate(-86,-78) scale(1,1)"><g><path fill="none" stroke="none"/><text fill="#000000" stroke="none" font-family="Arial" font-size="13px" font-style="normal" font-weight="normal" text-decoration="none" x="975.45458984375" y="110">ActivityPartition3</text></g></g><g transform="translate(-86,-78) scale(1,1)"><path fill="#C0C0C0" stroke="none" d="M 177 151 L 316 151 Q 326 151 326 161 L 326 244 Q 326 254 316 254 L 177 254 Q 167 254 167 244 L 167 161 Q 167 151 177 151 Z" opacity="0.2"/></g><g transform="translate(-86,-78) scale(1,1)"><path fill="#ffffff" stroke="none" d="M 170 144 L 309 144 Q 319 144 319 154 L 319 237 Q 319 247 309 247 L 170 247 Q 160 247 160 237 L 160 154 Q 160 144 170 144 Z"/></g><g transform="translate(-86,-78) scale(1,1)"><path fill="none" stroke="#000000" d="M 170 144 L 309 144 Q 319 144 319 154 L 319 237 Q 319 247 309 247 L 170 247 Q 160 247 160 237 L 160 154 Q 160 144 170 144 Z" stroke-miterlimit="10"/></g><g transform="translate(-86,-78) scale(1,1)"><g><path fill="none" stroke="none"/><text fill="#000000" stroke="none" font-family="Arial" font-size="13px" font-style="normal" font-weight="bold" text-decoration="none" x="215.66455078125" y="162">Action1</text></g></g><g transform="translate(-86,-78) scale(1,1)"><path fill="#C0C0C0" stroke="none" d="M 593 159 L 740 159 Q 750 159 750 169 L 750 245 Q 750 255 740 255 L 593 255 Q 583 255 583 245 L 583 169 Q 583 159 593 159 Z" opacity="0.2"/></g><g transform="translate(-86,-78) scale(1,1)"><path fill="#ffffff" stroke="none" d="M 586 152 L 733 152 Q 743 152 743 162 L 743 238 Q 743 248 733 248 L 586 248 Q 576 248 576 238 L 576 162 Q 576 152 586 152 Z"/></g><g transform="translate(-86,-78) scale(1,1)"><path fill="none" stroke="#000000" d="M 586 152 L 733 152 Q 743 152 743 162 L 743 238 Q 743 248 733 248 L 586 248 Q 576 248 576 238 L 576 162 Q 576 152 586 152 Z" stroke-miterlimit="10"/></g><g transform="translate(-86,-78) scale(1,1)"><g><path fill="none" stroke="none"/><text fill="#000000" stroke="none" font-family="Arial" font-size="13px" font-style="normal" font-weight="bold" text-decoration="none" x="635.66455078125" y="170">Action2</text></g></g><g transform="translate(-86,-78) scale(1,1)"><path fill="none" stroke="#000000" d="M 320 196 L 575 199" stroke-miterlimit="10"/></g><g transform="translate(-86,-78) scale(1,1)"><path fill="none" stroke="#000000" d="M 564.7885080572621 203.0896738627179 L 575 199 L 564.887548680089 194.6712209224274" stroke-miterlimit="10"/></g><g transform="translate(-86,-78) scale(1,1)"><path fill="#C0C0C0" stroke="none" d="M 191 436.5 L 218.5 407 L 245 436.5 L 218.5 465 L 191 436.5" opacity="0.2"/></g><g transform="translate(-86,-78) scale(1,1)"><path fill="#ffffff" stroke="none" d="M 184 429 L 211 400 L 238 429 L 211 458 L 184 429"/></g><g transform="translate(-86,-78) scale(1,1)"><path fill="none" stroke="#000000" d="M 184 429 L 211 400 L 238 429 L 211 458 L 184 429 L 184 429" stroke-miterlimit="10"/></g><g transform="translate(-86,-78) scale(1,1)"><path fill="none" stroke="#000000" d="M 209 399 L 200 296 L 248 258 L 247 248" stroke-miterlimit="10"/></g><g transform="translate(-86,-78) scale(1,1)"><path fill="none" stroke="#000000" d="M 252.19985066362 257.69337676333953 L 247 248 L 243.8225972234496 258.53110210735656" stroke-miterlimit="10"/></g><g transform="translate(-86,-78) scale(1,1)"><path fill="none" stroke="#000000" d="M 684 249 L 720 320 L 672 368 L 239 425" stroke-miterlimit="10"/></g><g transform="translate(-86,-78) scale(1,1)"><path fill="none" stroke="#000000" d="M 248.52634850492962 419.5001196228804 L 239 425 L 249.62514833815817 427.84714291740596" stroke-miterlimit="10"/></g><g transform="translate(-86,-78) scale(1,1)"><path fill="#C0C0C0" stroke="none" d="M 929 407 L 1100 407 Q 1110 407 1110 417 L 1110 500 Q 1110 510 1100 510 L 929 510 Q 919 510 919 500 L 919 417 Q 919 407 929 407 Z" opacity="0.2"/></g><g transform="translate(-86,-78) scale(1,1)"><path fill="#ffffff" stroke="none" d="M 922 400 L 1093 400 Q 1103 400 1103 410 L 1103 493 Q 1103 503 1093 503 L 922 503 Q 912 503 912 493 L 912 410 Q 912 400 922 400 Z"/></g><g transform="translate(-86,-78) scale(1,1)"><path fill="none" stroke="#000000" d="M 922 400 L 1093 400 Q 1103 400 1103 410 L 1103 493 Q 1103 503 1093 503 L 922 503 Q 912 503 912 493 L 912 410 Q 912 400 922 400 Z" stroke-miterlimit="10"/></g><g transform="translate(-86,-78) scale(1,1)"><g><path fill="none" stroke="none"/><text fill="#000000" stroke="none" font-family="Arial" font-size="13px" font-style="normal" font-weight="bold" text-decoration="none" x="983.66455078125" y="418">Action1</text></g></g><g transform="translate(-86,-78) scale(1,1)"><path fill="none" stroke="#000000" d="M 239 430 L 911 448" stroke-miterlimit="10"/></g><g transform="translate(-86,-78) scale(1,1)"><path fill="none" stroke="#000000" d="M 900.7282543994887 451.93589155317795 L 911 448 L 900.9536834239884 443.51987463852237" stroke-miterlimit="10"/></g><g transform="translate(-86,-78) scale(1,1)"><path fill="#C0C0C0" stroke="none" d="M 585 527 L 812 527 Q 822 527 822 537 L 822 596 Q 822 606 812 606 L 585 606 Q 575 606 575 596 L 575 537 Q 575 527 585 527 Z" opacity="0.2"/></g><g transform="translate(-86,-78) scale(1,1)"><path fill="#ffffff" stroke="none" d="M 578 520 L 805 520 Q 815 520 815 530 L 815 589 Q 815 599 805 599 L 578 599 Q 568 599 568 589 L 568 530 Q 568 520 578 520 Z"/></g><g transform="translate(-86,-78) scale(1,1)"><path fill="none" stroke="#000000" d="M 578 520 L 805 520 Q 815 520 815 530 L 815 589 Q 815 599 805 599 L 578 599 Q 568 599 568 589 L 568 530 Q 568 520 578 520 Z" stroke-miterlimit="10"/></g><g transform="translate(-86,-78) scale(1,1)"><g><path fill="none" stroke="none"/><text fill="#000000" stroke="none" font-family="Arial" font-size="13px" font-style="normal" font-weight="bold" text-decoration="none" x="667.66455078125" y="538">Action2</text></g></g><g transform="translate(-86,-78) scale(1,1)"><path fill="#C0C0C0" stroke="none" d="M 185 527 L 372 527 Q 382 527 382 537 L 382 604 Q 382 614 372 614 L 185 614 Q 175 614 175 604 L 175 537 Q 175 527 185 527 Z" opacity="0.2"/></g><g transform="translate(-86,-78) scale(1,1)"><path fill="#ffffff" stroke="none" d="M 178 520 L 365 520 Q 375 520 375 530 L 375 597 Q 375 607 365 607 L 178 607 Q 168 607 168 597 L 168 530 Q 168 520 178 520 Z"/></g><g transform="translate(-86,-78) scale(1,1)"><path fill="none" stroke="#000000" d="M 178 520 L 365 520 Q 375 520 375 530 L 375 597 Q 375 607 365 607 L 178 607 Q 168 607 168 597 L 168 530 Q 168 520 178 520 Z" stroke-miterlimit="10"/></g><g transform="translate(-86,-78) scale(1,1)"><g><path fill="none" stroke="none"/><text fill="#000000" stroke="none" font-family="Arial" font-size="13px" font-style="normal" font-weight="bold" text-decoration="none" x="247.66455078125" y="538">Action3</text></g></g><g transform="translate(-86,-78) scale(1,1)"><path fill="none" stroke="#000000" d="M 1007 504 L 1008 560 L 816 559" stroke-miterlimit="10"/></g><g transform="translate(-86,-78) scale(1,1)"><path fill="none" stroke="#000000" d="M 826.1844612946098 554.8434692183753 L 816 559 L 826.140612746048 563.2623905422531" stroke-miterlimit="10"/></g><g transform="translate(-86,-78) scale(1,1)"><path fill="none" stroke="#000000" d="M 567 560 L 376 562" stroke-miterlimit="10"/></g><g transform="translate(-86,-78) scale(1,1)"><path fill="none" stroke="#000000" d="M 386.1180414508911 557.6843033936514 L 376 562 L 386.2061940581446 566.1028773863587" stroke-miterlimit="10"/></g><g transform="translate(-86,-78) scale(1,1)"><path fill="#C0C0C0" stroke="none" d="M 663 687.5 L 686.5 663 L 709 687.5 L 686.5 711 L 663 687.5" opacity="0.2"/></g><g transform="translate(-86,-78) scale(1,1)"><path fill="#ffffff" stroke="none" d="M 656 680 L 679 656 L 702 680 L 679 704 L 656 680"/></g><g transform="translate(-86,-78) scale(1,1)"><path fill="none" stroke="#000000" d="M 656 680 L 679 656 L 702 680 L 679 704 L 656 680 L 656 680" stroke-miterlimit="10"/></g><g transform="translate(-86,-78) scale(1,1)"><path fill="none" stroke="#000000" d="M 271 608 L 272 688 L 655 680" stroke-miterlimit="10"/></g><g transform="translate(-86,-78) scale(1,1)"><path fill="none" stroke="#000000" d="M 644.9274494793865 684.4208286564499 L 655 680 L 644.7516333015906 676.0036291444696" stroke-miterlimit="10"/></g></g></svg>